<svg width="8" height="12" viewBox="0 0 8 12" fill="none" xmlns="http://www.w3.org/2000/svg">
<path d="M3.82325 0.0732423L0.0732486 3.82324C-0.0244156 3.92091 -0.0244156 4.07911 0.0732486 4.17675C0.170913 4.27441 0.329116 4.27441 0.426757 4.17675L3.75001 0.853499L3.75001 11.75C3.75001 11.8882 3.86183 12 4.00002 12C4.13821 12 4.25003 11.8882 4.25003 11.75L4.25003 0.853499L7.57326 4.17675C7.67092 4.27441 7.82912 4.27441 7.92676 4.17675C7.97558 4.12793 8.00001 4.06395 8.00001 3.99998C8.00001 3.93602 7.97558 3.87206 7.92676 3.82322L4.17676 0.0732175C4.07912 -0.0244225 3.92092 -0.0244225 3.82325 0.0732423Z" fill="black"/>
</svg>
