<svg width="122" height="67" viewBox="0 0 122 67" fill="none" xmlns="http://www.w3.org/2000/svg">
<path d="M20.688 15.224C22.64 15.288 24.12 15.552 25.128 16.016C26.136 16.464 26.64 17.264 26.64 18.416C26.64 19.968 25.88 21.12 24.36 21.872C22.856 22.624 20.736 23 18 23H1.68V7.64H16.8C19.936 7.64 22.232 7.944 23.688 8.552C25.144 9.144 25.872 10.12 25.872 11.48C25.872 12.664 25.44 13.544 24.576 14.12C23.728 14.68 22.432 15.048 20.688 15.224ZM7.68 12.104V14.432H17.112C17.928 14.432 18.512 14.336 18.864 14.144C19.216 13.952 19.392 13.656 19.392 13.256C19.392 12.856 19.216 12.568 18.864 12.392C18.512 12.2 17.928 12.104 17.112 12.104H7.68ZM18.12 18.488C19.64 18.488 20.4 18.096 20.4 17.312C20.4 16.928 20.224 16.64 19.872 16.448C19.52 16.256 18.936 16.16 18.12 16.16H7.68V18.488H18.12Z" fill="#FDB7C2"/>
<path d="M39.5916 23.36C35.7036 23.36 32.8316 22.872 30.9756 21.896C29.1196 20.92 28.1916 19.336 28.1916 17.144C28.1916 14.952 29.1196 13.36 30.9756 12.368C32.8476 11.376 35.7196 10.88 39.5916 10.88C43.4316 10.88 46.2716 11.376 48.1116 12.368C49.9676 13.36 50.8956 14.952 50.8956 17.144C50.8956 19.336 49.9756 20.92 48.1356 21.896C46.2956 22.872 43.4476 23.36 39.5916 23.36ZM39.5916 19.76C41.3676 19.76 42.7116 19.544 43.6236 19.112C44.5516 18.664 45.0156 18.008 45.0156 17.144C45.0156 16.28 44.5516 15.624 43.6236 15.176C42.7116 14.712 41.3676 14.48 39.5916 14.48C37.7996 14.48 36.4316 14.712 35.4876 15.176C34.5436 15.624 34.0716 16.28 34.0716 17.144C34.0716 18.008 34.5356 18.664 35.4636 19.112C36.4076 19.544 37.7836 19.76 39.5916 19.76ZM63.9666 23.36C60.0786 23.36 57.2066 22.872 55.3506 21.896C53.4946 20.92 52.5666 19.336 52.5666 17.144C52.5666 14.952 53.4946 13.36 55.3506 12.368C57.2226 11.376 60.0946 10.88 63.9666 10.88C67.8066 10.88 70.6466 11.376 72.4866 12.368C74.3426 13.36 75.2706 14.952 75.2706 17.144C75.2706 19.336 74.3506 20.92 72.5106 21.896C70.6706 22.872 67.8226 23.36 63.9666 23.36ZM63.9666 19.76C65.7426 19.76 67.0866 19.544 67.9986 19.112C68.9266 18.664 69.3906 18.008 69.3906 17.144C69.3906 16.28 68.9266 15.624 67.9986 15.176C67.0866 14.712 65.7426 14.48 63.9666 14.48C62.1746 14.48 60.8066 14.712 59.8626 15.176C58.9186 15.624 58.4466 16.28 58.4466 17.144C58.4466 18.008 58.9106 18.664 59.8386 19.112C60.7826 19.544 62.1586 19.76 63.9666 19.76ZM77.4216 6.44H83.1816V23H77.4216V6.44ZM98.5896 23L91.2936 23.048L83.2776 16.304L90.1416 11.24H97.7736L90.4296 16.376L98.5896 23ZM104.022 18.776C104.23 19.176 104.63 19.44 105.222 19.568C105.814 19.68 106.75 19.736 108.03 19.736C109.278 19.736 110.102 19.664 110.502 19.52C110.918 19.376 111.126 19.152 111.126 18.848C111.126 18.464 110.75 18.2 109.998 18.056C109.246 17.912 107.926 17.84 106.038 17.84C104.358 17.84 102.982 17.76 101.91 17.6C100.854 17.44 100.038 17.144 99.4618 16.712C98.8858 16.264 98.5978 15.64 98.5978 14.84C98.5978 12.2 101.742 10.88 108.03 10.88C109.966 10.88 111.582 11.08 112.878 11.48C114.19 11.88 115.158 12.424 115.782 13.112C116.406 13.8 116.71 14.584 116.694 15.464H111.534C111.358 15.064 111.03 14.8 110.55 14.672C110.07 14.544 109.23 14.48 108.03 14.48C106.766 14.48 105.878 14.552 105.366 14.696C104.854 14.824 104.598 15.064 104.598 15.416C104.598 15.672 104.726 15.872 104.982 16.016C105.254 16.16 105.75 16.272 106.47 16.352C107.206 16.416 108.278 16.448 109.686 16.448C111.286 16.448 112.59 16.504 113.598 16.616C114.606 16.728 115.446 17.008 116.118 17.456C116.79 17.904 117.126 18.592 117.126 19.52C117.126 22.08 114.094 23.36 108.03 23.36C105.678 23.36 103.806 23.136 102.414 22.688C101.038 22.24 100.078 21.696 99.5338 21.056C98.9898 20.4 98.7178 19.736 98.7178 19.064V18.776H104.022Z" fill="black"/>
<path d="M7.68 31.2V33.24H22.56V37.32H7.68V42H1.68V26.64H25.872V31.2H7.68Z" fill="#FC6D44"/>
<path d="M39.3103 42.36C35.4223 42.36 32.5503 41.872 30.6943 40.896C28.8383 39.92 27.9103 38.336 27.9103 36.144C27.9103 33.952 28.8383 32.36 30.6943 31.368C32.5663 30.376 35.4383 29.88 39.3103 29.88C43.1503 29.88 45.9903 30.376 47.8303 31.368C49.6863 32.36 50.6143 33.952 50.6143 36.144C50.6143 38.336 49.6943 39.92 47.8543 40.896C46.0143 41.872 43.1663 42.36 39.3103 42.36ZM39.3103 38.76C41.0863 38.76 42.4303 38.544 43.3423 38.112C44.2703 37.664 44.7343 37.008 44.7343 36.144C44.7343 35.28 44.2703 34.624 43.3423 34.176C42.4303 33.712 41.0863 33.48 39.3103 33.48C37.5183 33.48 36.1503 33.712 35.2063 34.176C34.2623 34.624 33.7903 35.28 33.7903 36.144C33.7903 37.008 34.2543 37.664 35.1823 38.112C36.1263 38.544 37.5023 38.76 39.3103 38.76ZM64.4773 34.68C62.9733 34.68 61.7013 34.856 60.6613 35.208C59.6373 35.544 58.8453 35.896 58.2853 36.264V42H52.5253V30.24H58.2853V34.296C58.5733 33.608 58.9893 32.928 59.5333 32.256C60.0933 31.584 60.7973 31.024 61.6453 30.576C62.4933 30.112 63.4373 29.88 64.4773 29.88V34.68Z" fill="black"/>
<path d="M25.776 61C25.776 60.008 26.072 58.624 26.664 56.848C25.848 58.272 24.496 59.4 22.608 60.232C20.72 61.064 18.408 61.48 15.672 61.48C11.112 61.48 7.6 60.888 5.136 59.704C2.672 58.504 1.44 56.416 1.44 53.44C1.44 50.432 2.72 48.304 5.28 47.056C7.856 45.792 11.56 45.16 16.392 45.16C20.76 45.16 24.112 45.768 26.448 46.984C28.784 48.184 30.016 49.888 30.144 52.096H23.904C23.04 50.752 20.536 50.08 16.392 50.08C13.336 50.08 11.12 50.352 9.744 50.896C8.384 51.424 7.704 52.272 7.704 53.44C7.704 54.24 8.008 54.888 8.616 55.384C9.24 55.864 10.216 56.224 11.544 56.464C12.888 56.688 14.664 56.8 16.872 56.8C19.832 56.8 22.44 56.456 24.696 55.768L20.328 55.816V53.296H30.48L30.72 61H25.776Z" fill="#2FA09B"/>
<path d="M55.3586 56.776C55.1186 58.232 54.1506 59.36 52.4546 60.16C50.7586 60.96 48.2546 61.36 44.9426 61.36C41.1026 61.36 38.1906 60.888 36.2066 59.944C34.2226 58.984 33.2306 57.384 33.2306 55.144C33.2306 52.92 34.2146 51.32 36.1826 50.344C38.1506 49.368 41.0706 48.88 44.9426 48.88C47.4226 48.88 49.4306 49.096 50.9666 49.528C52.5026 49.96 53.6306 50.664 54.3506 51.64C55.0866 52.616 55.4386 53.92 55.4066 55.552H39.0866C39.2146 56.24 39.7186 56.8 40.5986 57.232C41.4786 57.648 42.8466 57.856 44.7026 57.856C46.0946 57.856 47.2306 57.768 48.1106 57.592C48.9906 57.4 49.5186 57.128 49.6946 56.776H55.3586ZM44.7026 52.408C43.6466 52.408 42.7266 52.488 41.9426 52.648C41.1586 52.808 40.5426 53.016 40.0946 53.272C39.6466 53.512 39.3666 53.76 39.2546 54.016H49.8146C49.6706 53.568 49.1746 53.192 48.3266 52.888C47.4946 52.568 46.2866 52.408 44.7026 52.408ZM79.218 56.776C78.978 58.232 78.01 59.36 76.314 60.16C74.618 60.96 72.114 61.36 68.802 61.36C64.962 61.36 62.05 60.888 60.066 59.944C58.082 58.984 57.09 57.384 57.09 55.144C57.09 52.92 58.074 51.32 60.042 50.344C62.01 49.368 64.93 48.88 68.802 48.88C71.282 48.88 73.29 49.096 74.826 49.528C76.362 49.96 77.49 50.664 78.21 51.64C78.946 52.616 79.298 53.92 79.266 55.552H62.946C63.074 56.24 63.578 56.8 64.458 57.232C65.338 57.648 66.706 57.856 68.562 57.856C69.954 57.856 71.09 57.768 71.97 57.592C72.85 57.4 73.378 57.128 73.554 56.776H79.218ZM68.562 52.408C67.506 52.408 66.586 52.488 65.802 52.648C65.018 52.808 64.402 53.016 63.954 53.272C63.506 53.512 63.226 53.76 63.114 54.016H73.674C73.53 53.568 73.034 53.192 72.186 52.888C71.354 52.568 70.146 52.408 68.562 52.408ZM81.4294 44.44H87.1894V61H81.4294V44.44ZM102.597 61L95.3014 61.048L87.2854 54.304L94.1494 49.24H101.781L94.4374 54.376L102.597 61ZM108.03 56.776C108.238 57.176 108.638 57.44 109.23 57.568C109.822 57.68 110.758 57.736 112.038 57.736C113.286 57.736 114.11 57.664 114.51 57.52C114.926 57.376 115.134 57.152 115.134 56.848C115.134 56.464 114.758 56.2 114.006 56.056C113.254 55.912 111.934 55.84 110.046 55.84C108.366 55.84 106.99 55.76 105.918 55.6C104.862 55.44 104.046 55.144 103.47 54.712C102.894 54.264 102.606 53.64 102.606 52.84C102.606 50.2 105.75 48.88 112.038 48.88C113.974 48.88 115.59 49.08 116.886 49.48C118.198 49.88 119.166 50.424 119.79 51.112C120.414 51.8 120.718 52.584 120.702 53.464H115.542C115.366 53.064 115.038 52.8 114.558 52.672C114.078 52.544 113.238 52.48 112.038 52.48C110.774 52.48 109.886 52.552 109.374 52.696C108.862 52.824 108.606 53.064 108.606 53.416C108.606 53.672 108.734 53.872 108.99 54.016C109.262 54.16 109.758 54.272 110.478 54.352C111.214 54.416 112.286 54.448 113.694 54.448C115.294 54.448 116.598 54.504 117.606 54.616C118.614 54.728 119.454 55.008 120.126 55.456C120.798 55.904 121.134 56.592 121.134 57.52C121.134 60.08 118.102 61.36 112.038 61.36C109.686 61.36 107.814 61.136 106.422 60.688C105.046 60.24 104.086 59.696 103.542 59.056C102.998 58.4 102.726 57.736 102.726 57.064V56.776H108.03Z" fill="black"/>
</svg>
