<svg width="27" height="20" viewBox="0 0 27 20" fill="none" xmlns="http://www.w3.org/2000/svg">
<path d="M24.4444 0H2.22224C0.996615 0 0 0.996615 0 2.22224V17.7778C0 19.0034 0.996615 20 2.22224 20H24.4445C25.6701 20 26.6667 19.0034 26.6667 17.7778V2.22224C26.6667 0.996615 25.6701 0 24.4444 0ZM2.22224 1.11109H24.4445C24.5264 1.11109 24.5985 1.14094 24.6753 1.15781C22.7514 2.91859 16.372 8.75464 14.1396 10.766C13.9649 10.9234 13.6833 11.1111 13.3334 11.1111C12.9834 11.1111 12.7019 10.9234 12.5266 10.7655C10.2944 8.75443 3.91464 2.91807 1.99104 1.15792C2.06802 1.14104 2.14031 1.11109 2.22224 1.11109ZM1.11109 17.7778V2.22224C1.11109 2.11339 1.14391 2.01464 1.17328 1.91516C2.64578 3.26286 7.09703 7.33495 9.98328 9.95958C7.10641 12.4308 2.65401 16.652 1.16979 18.0673C1.14359 17.9729 1.11109 17.8805 1.11109 17.7778ZM24.4444 18.8889H2.22224C2.13349 18.8889 2.05458 18.858 1.97172 18.8382C3.50542 17.3761 7.98615 13.1306 10.8124 10.7127C11.1809 11.0469 11.5174 11.3517 11.7828 11.5907C12.2407 12.0042 12.7767 12.2222 13.3333 12.2222C13.89 12.2222 14.426 12.0041 14.8833 11.5912C15.1488 11.3521 15.4856 11.0471 15.8542 10.7127C18.6807 13.1303 23.1608 17.3755 24.6949 18.8382C24.6121 18.858 24.5333 18.8889 24.4444 18.8889ZM25.5556 17.7778C25.5556 17.8804 25.5231 17.9729 25.4969 18.0673C24.0121 16.6513 19.5603 12.4305 16.6834 9.95964C19.5698 7.335 24.0204 3.26328 25.4934 1.91505C25.5228 2.01453 25.5556 2.11333 25.5556 2.22219V17.7778Z" fill="white"/>
</svg>
