<svg width="10" height="10" viewBox="0 0 10 10" fill="none" xmlns="http://www.w3.org/2000/svg">
<path d="M10 9.55811L6.61087 6.16898C7.16439 5.51536 7.50001 4.67164 7.50001 3.75C7.50001 1.68213 5.81786 0 3.75 0C1.68214 0 0 1.68213 0 3.75C0 5.81788 1.68213 7.50001 3.75 7.50001C4.67164 7.50001 5.51536 7.16439 6.16898 6.61087L9.55811 10L10 9.55811ZM3.75 6.875C2.02698 6.875 0.625007 5.47303 0.625007 3.75C0.625007 2.02698 2.02698 0.625007 3.75 0.625007C5.47303 0.625007 6.875 2.02698 6.875 3.75C6.875 5.47303 5.47303 6.875 3.75 6.875Z" fill="black"/>
</svg>
